<svg width="24" height="15" viewBox="0 0 24 15" fill="none" xmlns="http://www.w3.org/2000/svg">
<path d="M11.9918 10.12C13.6218 10.12 14.4618 8.94 14.4618 6.44C14.4618 3.9 13.6418 2.76 12.0118 2.76C10.3818 2.76 9.54176 3.9 9.54176 6.44C9.54176 8.94 10.3618 10.12 11.9918 10.12ZM12.0118 9.31C10.9518 9.31 10.4918 8.47 10.4918 6.44C10.4918 4.42 10.9418 3.57 12.0018 3.57C13.0618 3.57 13.5118 4.42 13.5118 6.44C13.5118 8.47 13.0718 9.31 12.0118 9.31Z" fill="black"/>
<path d="M23.5 1C23.5 1 22.3904 1.56982 21.2075 5.07013C20.2946 7.77146 19.3023 11.6218 18.8968 13.2388C18.7846 13.6865 18.3833 14 17.9218 14H12H6.07821C5.61668 14 5.21542 13.6865 5.10317 13.2388C4.69773 11.6218 3.70544 7.77146 2.79251 5.07013C1.60957 1.56982 0.5 1 0.5 1" stroke="black" stroke-linecap="round"/>
</svg>
